<?xml version="1.0" encoding="utf-8"?>
<!-- Svg Vector Icons : http://www.onlinewebfonts.com/icon -->
<!DOCTYPE svg PUBLIC "-//W3C//DTD SVG 1.1//EN" "http://www.w3.org/Graphics/SVG/1.1/DTD/svg11.dtd">
<svg version="1.1" xmlns="http://www.w3.org/2000/svg" xmlns:xlink="http://www.w3.org/1999/xlink" x="0px" y="0px" viewBox="0 0 1000 1000" enable-background="new 0 0 1000 1000" xml:space="preserve">
<metadata> Svg Vector Icons : http://www.onlinewebfonts.com/icon </metadata>
<g><g transform="translate(0.000000,511.000000) scale(0.100000,-0.100000)"><path d="M6060.3,4092.4c-45.2-45.2-62.7-87.8-60.2-158.1c2.5-77.8-158.1-419.1-853.3-1819.5L4291,388.2h-90.3C4025,388.2,3922.1,180,4040.1,62c27.6-27.6,95.4-57.7,150.6-65.2c100.4-15.1,107.9-25.1,203.3-218.3l102.9-200.8l188.2,15c102.9,7.5,193.2,20.1,200.8,25.1c5,7.5-17.6,67.8-50.2,135.5c-32.6,65.2-70.3,145.5-77.8,178.2l-17.6,55.2h1681.4h1683.9v-70.3c0-52.7,25.1-92.9,102.9-155.6c57.7-45.2,128-135.5,160.6-203.3l55.2-123l27.6,143c15.1,80.3,35.1,205.8,45.2,278.6l17.6,130.5h308.7h311.2v-225.9V-465l384,313.7C9726.8,21.9,9900,174.9,9900,190s-168.1,165.6-376.4,338.8L9147.1,840l-7.5-228.4l-7.5-225.9l-316.2,7.5l-316.2,7.5L8457,614.1c-123,599.8-391.5,1051.5-1199.6,2017.7c-632.4,760.4-858.3,1111.8-858.3,1335.1c0,35.1-27.6,90.3-62.7,123C6256.1,4172.7,6140.6,4172.7,6060.3,4092.4z M6379,3101.1c65.2-92.9,268.5-348.8,451.7-569.7c632.4-752.9,858.3-1061.6,1039-1420.4c90.4-180.7,195.8-474.3,220.9-627.4l17.5-95.4H6424.2c-1106.7,0-1681.4,7.5-1681.4,25.1c0,15.1,328.8,682.6,730.3,1488.2c619.9,1237.2,735.3,1453.1,760.4,1415.4C6248.5,3289.3,6313.8,3194,6379,3101.1z"/><path d="M2720,968c-346.3-87.8-577.2-363.9-607.3-717.8C2065-364.6,2682.4-791.3,3252.1-530.3c313.7,145.6,499.4,509.4,434.2,860.8c-50.2,268.5-200.8,466.8-446.7,579.7C3096.5,975.5,2855.5,1003.1,2720,968z"/><path d="M7302.6-304.4c-35.1-7.5-180.7-40.2-326.3-72.8C6118-575.4,5194.5-640.7,3156.7-640.7H2009.8l-102.9,140.6c-57.7,75.3-130.5,148-165.6,160.6c-47.7,20.1-198.3-15-690.1-150.6C704.8-588,391.1-683.4,351-703.4C215.4-773.7,100-982,100-1155.2c0-268.5,213.3-562.1,484.4-662.5c165.6-60.2,486.9-102.9,795.5-102.9c118,0,228.4-10,245.9-20.1c20.1-15,67.8-286.1,130.5-772.9c55.2-411.6,100.4-760.4,100.4-770.4s27.6-47.7,62.7-80.3l60.2-62.7h893.4c534.5,0,913.5,10,941.1,25.1c87.8,45.2,100.4,163.1,100.4,855.8c0,624.9,2.5,677.6,47.7,722.8c30.1,30.1,185.7,80.3,431.7,138c780.5,188.2,2833.3,667.5,2853.4,667.5c10,0,67.8-62.7,128-140.5c135.5-173.2,233.4-235.9,373.9-235.9c92.9,0,123,15.1,230.9,115.5c67.8,62.7,145.5,163.1,173.2,220.8c65.2,133,100.4,384,75.3,542.1c-50.2,323.7-170.7,406.6-599.8,416.6C7483.3-296.9,7337.7-299.4,7302.6-304.4z"/><path d="M6918.6-2204.2c-243.4-293.6-491.9-602.3-549.6-687.6c-60.2-87.8-115.4-158.1-123-158.1c-7.5,0-153.1,283.6-318.7,627.4c-168.1,346.3-318.7,627.4-333.8,627.4c-35.1,0-373.9-77.8-373.9-85.3c0-5,180.7-379,401.5-830.7c399-813.1,404-825.6,389-951.1c-15-107.9-7.5-138,37.6-198.3c75.3-95.4,225.9-95.4,298.7-2.5c30.1,37.6,52.7,92.8,52.7,125.5c0,195.8,238.4,584.7,665,1089.2c145.6,173.2,356.4,426.6,469.3,564.7l203.3,251l-77.8,15.1c-42.7,7.5-125.5,45.2-188.2,80.3l-110.4,65.3L6918.6-2204.2z"/></g></g>
</svg>