<?xml version="1.0" standalone="no"?>
<!DOCTYPE svg PUBLIC "-//W3C//DTD SVG 20010904//EN"
 "http://www.w3.org/TR/2001/REC-SVG-20010904/DTD/svg10.dtd">
<svg version="1.0" xmlns="http://www.w3.org/2000/svg"
 width="512.000000pt" height="512.000000pt" viewBox="0 0 512.000000 512.000000"
 preserveAspectRatio="xMidYMid meet">

<g transform="translate(0.000000,512.000000) scale(0.100000,-0.100000)"
fill="#000000" stroke="none">
<path d="M2438 5110 c-270 -49 -492 -241 -585 -505 -28 -79 -28 -84 -28 -310
0 -226 0 -231 28 -310 38 -109 98 -207 174 -286 l64 -66 -128 -5 c-202 -8
-346 -66 -479 -191 -160 -149 -244 -339 -244 -552 l0 -75 -85 0 -85 0 2 453 3
452 30 3 31 3 95 288 96 288 -165 387 c-91 212 -168 386 -171 386 -3 0 -80
-174 -171 -386 l-164 -386 95 -286 95 -287 32 -3 32 -3 0 -454 0 -454 -37 -6
c-141 -23 -252 -120 -284 -248 -46 -186 90 -384 277 -405 l44 -5 0 -1073 0
-1074 80 0 80 0 2 1073 3 1072 328 3 327 2 0 -1075 0 -1075 830 0 830 0 0 147
0 147 114 -114 c63 -63 120 -116 126 -118 24 -8 275 258 407 433 144 189 298
461 376 665 139 359 162 728 68 1097 -76 296 -269 665 -495 946 -80 100 -222
255 -301 328 l-49 47 -42 -34 -42 -35 -78 40 c-109 56 -214 81 -343 81 l-104
0 65 68 c77 80 137 178 175 287 28 79 28 84 28 310 0 226 0 231 -28 310 -42
119 -100 210 -191 300 -89 88 -186 146 -311 185 -79 24 -249 35 -327 20z m327
-195 c170 -68 286 -190 346 -365 30 -89 39 -338 15 -450 -47 -221 -220 -401
-436 -451 -313 -72 -629 132 -696 451 -24 111 -15 361 15 450 42 123 108 216
204 286 119 88 209 115 367 111 98 -3 125 -8 185 -32z m-1691 -446 l77 -181
-68 -201 c-63 -188 -70 -202 -92 -202 -23 0 -29 14 -92 203 l-68 203 77 179
c42 99 79 180 83 180 3 0 41 -81 83 -181z m2154 -1009 c67 -11 157 -41 187
-63 17 -13 13 -20 -54 -97 -332 -385 -557 -837 -615 -1235 l-11 -80 -418 -3
-417 -2 0 540 0 541 -82 -3 -83 -3 -3 -372 -2 -373 -330 0 -330 0 0 165 0 165
164 0 163 0 6 173 c4 106 12 193 21 227 57 205 231 370 436 414 52 12 193 15
685 15 377 1 645 -3 683 -9z m531 -245 c308 -361 509 -735 582 -1081 118 -564
-88 -1154 -609 -1747 l-95 -108 -25 23 c-37 35 -211 243 -274 328 -214 291
-367 623 -422 919 -79 415 37 875 333 1324 88 133 217 300 311 400 l73 78 24
-23 c14 -13 60 -63 102 -113z m-2849 -740 c0 -182 2 -177 -66 -146 -124 56
-133 229 -16 291 21 10 47 19 60 20 22 0 22 0 22 -165z m1822 -765 c3 -58 14
-147 23 -198 10 -51 16 -95 14 -96 -2 -2 -38 -24 -79 -50 -65 -40 -81 -46
-130 -46 -55 0 -60 3 -357 188 l-302 187 -1 63 0 62 413 -2 412 -3 7 -105z
m-527 -398 c127 -80 240 -148 253 -153 l22 -9 0 -490 0 -490 -290 0 -290 0 0
666 0 666 38 -23 c20 -13 141 -88 267 -167z m650 -152 c60 -160 200 -419 315
-582 l50 -71 0 -169 0 -168 -290 0 -290 0 0 490 0 490 23 9 c13 5 52 27 87 50
36 22 67 37 71 33 3 -4 18 -41 34 -82z"/>
<path d="M2067 3053 c-4 -3 -7 -42 -7 -85 l0 -78 85 0 85 0 0 85 0 85 -78 0
c-43 0 -82 -3 -85 -7z"/>
<path d="M2890 2975 l0 -85 85 0 86 0 -3 83 -3 82 -82 3 -83 3 0 -86z"/>
<path d="M3550 2890 l0 -80 85 0 85 0 0 80 0 80 -85 0 -85 0 0 -80z"/>
<path d="M3550 2560 l0 -80 85 0 85 0 0 80 0 80 -85 0 -85 0 0 -80z"/>
<path d="M3500 2291 c-217 -70 -360 -257 -360 -471 0 -137 48 -251 149 -350
71 -70 141 -110 236 -135 237 -61 496 87 579 331 89 261 -76 557 -349 629 -78
20 -187 18 -255 -4z m277 -182 c122 -58 188 -171 181 -309 -4 -91 -31 -151
-94 -214 -63 -63 -123 -90 -214 -94 -300 -14 -458 338 -248 554 99 103 241
127 375 63z"/>
<path d="M3550 1075 l0 -85 85 0 86 0 -3 83 -3 82 -82 3 -83 3 0 -86z"/>
<path d="M3550 745 l0 -85 85 0 86 0 -3 83 -3 82 -82 3 -83 3 0 -86z"/>
</g>
</svg>
