<?xml version="1.0" standalone="no"?>
<!DOCTYPE svg PUBLIC "-//W3C//DTD SVG 20010904//EN"
 "http://www.w3.org/TR/2001/REC-SVG-20010904/DTD/svg10.dtd">
<svg version="1.0" xmlns="http://www.w3.org/2000/svg"
 width="512.000000pt" height="512.000000pt" viewBox="0 0 512.000000 512.000000"
 preserveAspectRatio="xMidYMid meet">

<g transform="translate(0.000000,512.000000) scale(0.100000,-0.100000)"
fill="#000000" stroke="none">
<path d="M1285 5068 c-147 -171 -271 -523 -317 -898 -17 -139 -16 -532 1 -697
l13 -133 -38 -45 c-186 -216 -273 -357 -295 -477 -18 -101 21 -124 122 -72 28
14 52 24 54 22 2 -2 -19 -39 -46 -83 -58 -95 -129 -259 -160 -370 -29 -103
-34 -311 -8 -328 28 -18 67 0 80 38 19 52 21 36 4 -37 -41 -177 -39 -259 4
-273 29 -9 43 2 102 80 50 66 54 68 60 45 4 -14 7 -45 8 -70 3 -109 63 -286
132 -387 18 -26 121 -138 228 -249 108 -110 214 -224 236 -252 63 -82 120 -83
120 -2 l0 42 25 -32 c49 -62 139 -212 155 -258 10 -26 22 -59 27 -74 11 -30
37 -43 67 -33 25 8 38 45 46 133 l7 72 61 -87 c218 -317 428 -554 544 -615
l43 -23 48 25 c101 53 315 292 514 577 l86 122 7 -72 c3 -40 11 -84 17 -99 18
-49 78 -49 96 0 5 15 17 48 27 74 16 46 106 196 155 258 l25 32 0 -42 c0 -81
57 -80 120 2 22 28 128 142 236 252 107 111 210 223 228 249 71 104 130 280
132 392 1 95 9 97 68 19 59 -77 73 -88 102 -79 43 14 45 96 4 273 -9 36 -13
67 -10 70 3 3 5 -2 5 -10 0 -26 40 -68 65 -68 42 0 48 21 42 148 -3 75 -13
144 -27 192 -31 108 -102 272 -159 365 -27 44 -48 81 -46 83 2 2 26 -8 54 -22
101 -52 140 -29 122 72 -22 120 -109 261 -295 477 l-38 45 13 133 c17 165 18
558 1 697 -46 377 -173 735 -319 899 -33 37 -43 43 -65 38 -21 -6 -31 -19 -48
-65 -36 -96 -88 -186 -158 -273 -76 -94 -137 -148 -344 -301 l-145 -107 -63
26 c-241 97 -621 89 -858 -18 l-62 -28 -83 51 c-45 28 -107 67 -137 86 -121
77 -286 271 -421 497 -40 66 -77 123 -83 127 -23 16 -46 6 -81 -34z m130 -228
c136 -212 291 -379 427 -462 105 -65 209 -135 243 -163 29 -25 29 -26 10 -37
-11 -6 -37 -28 -58 -47 l-38 -36 -107 105 c-62 61 -163 145 -241 200 -77 55
-162 125 -201 167 -68 73 -136 187 -161 270 -11 40 -10 45 15 84 15 23 31 37
35 33 4 -5 38 -56 76 -114z m2406 74 c19 -32 20 -40 10 -74 -31 -106 -179
-272 -341 -384 -110 -76 -264 -232 -313 -316 l-37 -66 -62 59 c-34 32 -57 62
-52 65 86 58 466 353 517 401 81 76 171 195 218 286 19 36 35 65 36 65 1 0 11
-16 24 -36z m159 -384 c72 -255 101 -564 82 -887 -7 -113 -14 -208 -16 -211
-3 -2 -46 31 -96 75 l-91 78 54 5 c61 6 87 22 87 56 0 31 -21 43 -167 95 -68
24 -123 47 -123 50 0 3 39 41 88 84 101 90 116 115 85 146 l-21 21 -253 -52
c-140 -29 -262 -56 -271 -61 -34 -18 -12 -89 27 -89 8 0 78 14 156 30 78 17
144 29 146 27 2 -2 -22 -27 -52 -54 -80 -74 -74 -103 28 -138 l55 -18 -21 -28
c-27 -37 -21 -45 113 -150 129 -101 330 -296 417 -404 62 -77 121 -171 142
-227 10 -26 9 -26 -96 23 -108 50 -140 58 -161 37 -20 -20 -13 -53 19 -94 124
-153 256 -405 293 -557 l7 -29 -48 40 c-26 21 -79 56 -118 76 -177 95 -322
222 -425 371 -104 150 -196 231 -343 300 -153 73 -277 82 -384 30 -91 -45
-142 -131 -162 -272 -5 -38 -20 -96 -33 -130 -18 -49 -20 -67 -12 -80 14 -23
72 -30 80 -9 4 11 22 15 73 14 79 0 123 8 172 33 50 25 112 98 129 151 8 24
24 56 37 71 28 34 28 39 5 67 -33 41 -220 25 -300 -27 -35 -22 -38 -8 -9 35
47 71 154 99 263 67 63 -18 174 -73 212 -105 l24 -20 -35 -72 c-50 -102 -129
-211 -187 -257 -104 -82 -210 -91 -333 -26 -37 19 -74 35 -82 35 -19 0 -49
-46 -41 -65 9 -25 96 -74 170 -97 204 -62 397 53 542 324 l32 60 30 -78 c109
-283 74 -523 -99 -694 -74 -73 -140 -115 -258 -166 -133 -58 -126 -61 -166 91
-52 204 -153 456 -192 482 -21 14 -26 14 -48 -1 -14 -9 -25 -25 -25 -35 0 -10
18 -58 40 -106 52 -111 122 -323 149 -445 48 -225 48 -467 1 -561 -29 -55 -93
-117 -149 -142 -55 -26 -181 -30 -220 -8 -24 13 -24 14 36 41 116 53 177 139
177 250 0 79 -23 128 -88 188 -77 71 -122 86 -256 87 -103 0 -121 -3 -170 -26
-118 -55 -180 -141 -180 -249 0 -33 6 -76 14 -95 23 -54 93 -123 158 -154 l59
-28 -33 -14 c-51 -21 -164 -17 -219 8 -56 25 -120 87 -148 142 -49 94 -48 334
0 560 27 123 97 335 149 447 22 49 39 98 38 109 -4 29 -47 48 -72 31 -38 -24
-139 -281 -191 -481 -33 -126 -35 -130 -60 -128 -33 2 -170 62 -242 105 -134
80 -245 228 -274 365 -24 118 3 317 63 456 l21 48 39 -72 c164 -303 392 -401
632 -271 27 15 55 37 63 49 14 21 14 26 -1 48 -22 33 -32 32 -113 -10 -123
-65 -229 -56 -333 26 -58 46 -137 155 -187 257 l-35 72 24 20 c39 33 180 99
237 111 101 21 200 -10 241 -76 26 -42 22 -53 -12 -32 -75 48 -259 67 -299 31
-25 -22 -24 -36 4 -71 13 -15 29 -47 37 -71 17 -53 79 -126 129 -151 49 -25
93 -33 172 -33 51 1 69 -3 73 -14 8 -21 66 -14 80 9 8 13 6 31 -12 80 -13 34
-28 92 -33 130 -20 141 -71 227 -162 272 -107 52 -231 43 -384 -30 -143 -67
-241 -151 -334 -288 -35 -50 -82 -112 -104 -136 -70 -77 -248 -207 -357 -262
-24 -11 -64 -39 -90 -61 -27 -21 -48 -35 -48 -29 0 23 66 193 105 271 44 88
138 235 194 304 32 41 39 74 19 94 -20 20 -52 14 -153 -33 -54 -25 -100 -43
-104 -40 -11 11 62 137 129 224 84 107 292 311 430 420 133 105 140 113 113
149 l-21 28 64 23 c95 34 98 69 13 141 -28 23 -48 44 -46 46 2 3 68 -9 146
-26 78 -16 148 -30 156 -30 39 0 61 71 28 89 -10 5 -132 32 -272 61 l-253 52
-20 -20 c-32 -31 -16 -59 82 -146 50 -44 90 -82 90 -85 0 -3 -55 -26 -123 -50
-146 -52 -167 -64 -167 -95 0 -34 26 -50 87 -56 l54 -5 -91 -78 c-50 -44 -93
-77 -95 -75 -7 7 -25 301 -25 405 0 296 59 648 141 851 l22 53 46 -83 c61
-109 198 -248 351 -355 126 -88 233 -182 291 -256 l38 -47 -24 -53 c-30 -63
-30 -69 -6 -91 36 -33 61 -17 102 64 63 124 133 190 201 190 34 0 62 33 54 63
-3 13 -24 38 -46 56 -22 17 -40 36 -40 41 0 11 104 45 205 66 160 34 444 18
564 -32 l34 -14 -59 -46 c-70 -54 -86 -84 -59 -114 10 -11 29 -20 43 -20 68 0
143 -71 202 -193 29 -58 41 -73 61 -75 15 -2 32 5 44 18 17 19 17 23 3 59 -15
37 -14 42 7 94 48 120 168 253 328 364 113 80 242 207 302 297 l49 76 23 -57
c13 -32 37 -105 53 -163z m-1986 -1728 c56 -31 113 -93 93 -103 -19 -11 -119
9 -147 29 -30 23 -70 79 -70 100 0 20 62 8 124 -26z m1256 24 c0 -19 -41 -76
-70 -98 -28 -20 -128 -40 -147 -29 -22 12 43 77 109 110 65 33 108 40 108 17z
m-1950 -306 c-14 -75 -12 -203 4 -282 29 -132 109 -260 225 -354 115 -95 237
-273 373 -551 90 -183 142 -249 229 -293 24 -12 65 -42 92 -67 62 -58 173
-109 266 -124 148 -22 317 29 413 125 23 24 63 54 88 66 86 44 137 111 237
312 135 270 250 438 365 533 116 95 196 222 225 358 15 72 13 260 -3 317 -6
20 5 13 57 -35 82 -78 166 -142 271 -207 46 -28 86 -56 90 -62 13 -19 98 -284
97 -303 0 -10 -3 -13 -6 -6 -9 23 -106 93 -128 93 -40 0 -45 -20 -49 -191 -4
-184 -14 -230 -82 -360 -32 -62 -69 -105 -221 -259 l-183 -185 6 46 c5 35 2
49 -11 62 -38 38 -64 17 -188 -150 -41 -56 -92 -130 -113 -164 l-39 -63 -5 73
c-4 57 -9 76 -24 87 -22 16 -36 17 -52 6 -5 -4 -57 -77 -115 -162 -134 -198
-255 -360 -361 -479 -79 -90 -178 -181 -197 -181 -19 0 -126 96 -198 178 -99
114 -261 329 -375 500 -110 165 -113 168 -154 138 -15 -11 -20 -30 -24 -87
l-5 -73 -39 63 c-21 34 -72 108 -113 164 -124 167 -150 188 -188 150 -13 -13
-16 -27 -11 -62 l6 -46 -184 185 c-173 175 -185 190 -230 280 -61 124 -78 208
-75 372 2 136 -4 158 -46 158 -22 0 -119 -70 -128 -93 -3 -7 -6 -4 -6 6 -1 19
84 284 97 303 4 6 45 35 92 63 98 61 228 161 284 220 22 22 41 39 43 37 2 -1
-1 -27 -7 -56z m620 -887 c0 -90 -8 -90 -66 3 -30 47 -54 87 -54 89 0 1 27 -7
60 -19 l60 -21 0 -52z m1346 4 c-29 -47 -56 -83 -60 -80 -3 4 -6 34 -6 67 l0
61 58 21 c31 11 58 19 60 18 1 0 -22 -40 -52 -87z m-559 -85 c148 -76 146
-235 -5 -309 -129 -63 -312 -19 -368 89 -22 42 -18 110 9 149 65 97 244 132
364 71z m-91 -507 c32 -20 76 -38 96 -42 21 -3 38 -9 38 -14 0 -9 -82 -34
-146 -44 -47 -7 -152 9 -204 32 l-35 16 41 9 c30 6 118 51 150 77 1 1 28 -15
60 -34z"/>
<path d="M2524 4166 c-18 -14 -19 -29 -19 -366 0 -377 -1 -369 50 -370 44 0
45 6 45 377 0 338 -1 353 -19 363 -26 13 -33 13 -57 -4z"/>
<path d="M1948 3331 c-19 -16 -21 -23 -13 -47 9 -26 17 -30 75 -40 81 -13 124
-28 157 -54 73 -57 130 18 62 81 -33 30 -127 63 -211 73 -36 4 -52 1 -70 -13z"/>
<path d="M3068 3340 c-121 -21 -208 -72 -208 -122 0 -48 49 -64 89 -29 31 27
66 40 151 54 68 11 75 14 85 41 8 24 6 31 -14 47 -25 20 -31 21 -103 9z"/>
<path d="M2356 2967 c-20 -14 -21 -25 -11 -128 9 -87 -5 -184 -36 -256 -24
-57 -19 -90 18 -99 21 -6 31 -2 49 20 54 62 87 257 65 386 -13 82 -42 108 -85
77z"/>
<path d="M2707 2968 c-20 -16 -37 -98 -37 -182 1 -118 52 -289 91 -301 29 -9
58 4 65 29 3 12 -4 43 -15 69 -32 75 -44 161 -36 274 6 95 6 102 -13 112 -26
14 -34 14 -55 -1z"/>
</g>
</svg>
