<?xml version="1.0" standalone="no"?>
<!DOCTYPE svg PUBLIC "-//W3C//DTD SVG 20010904//EN"
 "http://www.w3.org/TR/2001/REC-SVG-20010904/DTD/svg10.dtd">
<svg version="1.0" xmlns="http://www.w3.org/2000/svg"
 width="512.000000pt" height="512.000000pt" viewBox="0 0 512.000000 512.000000"
 preserveAspectRatio="xMidYMid meet">

<g transform="translate(0.000000,512.000000) scale(0.100000,-0.100000)"
fill="#000000" stroke="none">
<path d="M2127 5110 c-331 -58 -583 -282 -684 -607 l-27 -88 -4 -545 c-2 -378
0 -574 8 -640 23 -181 87 -352 190 -506 56 -83 214 -247 268 -279 l32 -19 0
-102 0 -102 -302 -4 c-276 -4 -310 -7 -383 -27 -340 -95 -592 -347 -688 -688
-21 -76 -21 -95 -25 -730 -3 -642 -3 -653 18 -692 13 -27 34 -48 60 -61 39
-20 55 -20 1970 -20 1915 0 1931 0 1970 20 26 13 47 34 60 61 21 39 21 50 18
692 -4 645 -4 653 -27 732 -97 342 -351 595 -686 687 -72 19 -111 22 -382 26
l-303 4 0 101 1 102 55 40 c68 48 165 150 227 236 149 210 217 434 217 722 0
70 2 127 5 127 4 0 61 -44 128 -99 137 -110 172 -131 217 -131 76 0 150 74
150 149 0 64 -28 96 -217 246 -100 81 -183 150 -183 155 0 5 83 74 183 155
189 150 217 182 217 246 0 75 -74 149 -150 149 -45 0 -80 -21 -217 -131 -67
-55 -124 -99 -126 -99 -2 0 -7 51 -10 113 -19 376 -251 672 -614 784 l-88 27
-415 2 c-228 1 -437 -1 -463 -6z m915 -321 c215 -84 349 -261 365 -486 l6 -83
-853 0 -853 0 6 83 c18 253 195 456 442 507 22 5 216 8 430 7 l390 -2 67 -26z
m-646 -914 c-32 -103 -96 -177 -196 -224 -46 -22 -69 -26 -140 -26 -71 0 -94
4 -140 26 -100 47 -164 121 -196 224 l-13 45 349 0 349 0 -13 -45z m1000 0
c-32 -103 -96 -177 -196 -224 -46 -22 -69 -26 -140 -26 -71 0 -94 4 -140 26
-100 47 -164 121 -196 224 l-13 45 349 0 349 0 -13 -45z m-770 -384 c189 -177
473 -219 713 -106 l74 35 -6 -97 c-23 -365 -259 -661 -614 -770 -78 -23 -104
-26 -233 -26 -129 0 -155 3 -233 26 -355 109 -591 405 -614 770 l-6 97 74 -35
c239 -113 526 -71 712 105 34 33 64 59 66 60 2 0 32 -27 67 -59z m-291 -1249
c48 -11 119 -16 225 -16 145 0 193 6 323 39 l29 8 -4 -194 c-3 -185 -4 -197
-29 -250 -37 -79 -90 -133 -167 -171 -59 -29 -76 -33 -152 -33 -71 0 -94 4
-141 26 -79 37 -133 90 -171 167 l-33 66 -3 195 -4 194 29 -8 c15 -4 60 -14
98 -23z m-420 -359 c17 -100 58 -206 107 -275 l19 -28 -576 0 -576 0 18 33
c10 17 54 68 98 113 63 64 98 90 165 123 127 62 175 69 477 70 l262 1 6 -37z
m1880 22 c119 -25 228 -86 320 -179 44 -45 88 -96 98 -113 l18 -33 -576 0
-576 0 19 28 c49 69 90 175 107 275 l6 37 257 0 c187 0 276 -4 327 -15z m515
-795 l0 -170 -1750 0 -1750 0 0 170 0 170 1750 0 1750 0 0 -170z m0 -640 l0
-170 -1750 0 -1750 0 0 170 0 170 1750 0 1750 0 0 -170z"/>
</g>
</svg>
